<?xml version="1.0" encoding="UTF-8"?><svg id="a" xmlns="http://www.w3.org/2000/svg" viewBox="0 0 180 180"><defs><style>.b{fill:#fff;}.c{fill:#db011c;}</style></defs><g><circle class="c" cx="90" cy="90" r="87.5"/><path class="b" d="M90,5c46.87,0,85,38.13,85,85s-38.13,85-85,85S5,136.87,5,90,43.13,5,90,5m0-5C40.29,0,0,40.29,0,90s40.29,90,90,90,90-40.29,90-90S139.71,0,90,0h0Z"/></g><g><path class="b" d="M90.01,162.59c-7.37,0-14.15-3.34-18.59-9.17l-.34-.45-.2-.52c-3.53-9.02-9.07-20.22-15.6-31.54-10.11-17.51-20.95-32.44-27.6-38.04l-.49-.41-.97-1.57c-3.48-5.61-4.45-12.17-2.73-18.47,1.5-5.5,4.93-10.25,9.57-13.38,.47-8.77,7.85-15.62,16.88-15.62h3.12l1.5,.21,.26,.07c8.79,2.47,21.61,3.89,35.18,3.89s26.39-1.42,35.18-3.89l.26-.07,1.51-.21h3.95c9.08,0,16.5,6.93,16.89,15.77,0,.15,.01,.31,.01,.46,4.36,3.24,7.53,7.97,8.86,13.31,1.52,6.13,.5,12.49-2.87,17.92l-1.83,2.94-.37,.35c-6.81,6.52-16.83,20.59-26.14,36.72-5.91,10.24-10.93,20.21-14.5,28.82l-.12,.3-.93,1.5c-4.3,6.92-11.73,11.05-19.88,11.05h0Z"/><path class="b" d="M130.9,37.45c6.76,0,12.6,5.19,12.89,11.95,.04,.8-.02,1.58-.12,2.34,8.92,5.2,12.83,17.22,6.72,27.06l-1.56,2.52c-6.84,6.54-16.98,20.53-26.84,37.61-6.18,10.71-11.25,20.9-14.73,29.28l-.76,1.22c-3.8,6.11-10.14,9.16-16.48,9.16-5.77,0-11.55-2.53-15.41-7.59-3.47-8.86-8.98-20.16-15.86-32.08-10.69-18.51-21.71-33.4-28.5-39.1l-.64-1.03c-6.29-10.12-1.97-22.56,7.51-27.5-.07-.62-.1-1.25-.07-1.9,.3-6.75,6.13-11.95,12.89-11.95h2.84c.32,.04,.64,.09,.96,.13,8.8,2.47,21.78,4.04,36.26,4.04s27.47-1.56,36.26-4.04c.33-.05,.64-.09,.97-.13h3.67m0-8h-4.23l-.55,.08-.97,.13-.54,.07-.52,.15c-8.45,2.38-20.88,3.74-34.1,3.74s-25.65-1.36-34.1-3.74l-.52-.15-.54-.07-.96-.13-.55-.08h-3.4c-10.48,0-19.17,7.5-20.67,17.43-4.64,3.63-8.05,8.72-9.64,14.51-2.02,7.39-.89,15.07,3.19,21.63l.64,1.03,.67,1.08,.98,.82c5.19,4.36,15.46,17.48,26.71,36.97,6.43,11.15,11.88,22.15,15.34,30.99l.41,1.04,.68,.89c5.2,6.83,13.14,10.74,21.77,10.74,9.54,0,18.24-4.84,23.28-12.94l.76-1.22,.34-.55,.25-.6c3.46-8.33,8.53-18.4,14.27-28.35,9.14-15.83,18.89-29.56,25.45-35.83l.73-.7,.53-.86,1.56-2.52c3.95-6.35,5.14-13.81,3.36-20.99-1.39-5.61-4.54-10.66-8.86-14.37-1.16-10.32-10.03-18.21-20.78-18.21h0Z"/></g><path d="M143.67,51.74c.11-.76,.16-1.54,.12-2.34-.3-6.75-6.13-11.95-12.89-11.95h-3.67c-.33,.05-.64,.09-.97,.13-8.79,2.47-21.78,4.04-36.26,4.04s-27.47-1.57-36.26-4.04c-.32-.04-.64-.09-.96-.13h-2.84c-6.76,0-12.6,5.19-12.89,11.95-.03,.65,0,1.28,.07,1.9-9.47,4.94-13.8,17.38-7.51,27.5l.64,1.03c6.78,5.7,17.81,20.58,28.5,39.1,6.88,11.92,12.4,23.22,15.86,32.08,8.09,10.62,24.63,10.1,31.89-1.57l.76-1.22c3.48-8.39,8.55-18.58,14.73-29.28,9.86-17.08,20-31.07,26.84-37.61l1.56-2.52c6.11-9.83,2.2-21.86-6.72-27.06Zm-43.85,9.26c0,1.1-1.79,2-4,2s-4-.9-4-2h8Zm-12-.02c0,1.1-1.79,2-4,2s-4-.9-4-2h8Zm-35.99-14.28l18.81,6.85c-.95,2.6-5.92,3.17-11.12,1.28-5.2-1.89-8.64-5.53-7.69-8.13Zm74.42,45.03l-25.39,45.56c-.09-.22-.18-.44-.29-.66-1.67-3.66-2.67-4.18-2.67-4.18,0,0,.33,1.57,.67,4.18,.16,1.29,.17,2.59,.12,3.56-4.77,4.75-12.67,4.74-17.43-.03-.04-.97-.04-2.25,.13-3.53,.33-2.61,.67-4.18,.67-4.18,0,0-1,.52-2.67,4.18-.1,.21-.19,.42-.27,.63l-25.37-45.53c-4.6-8.25,1.37-18.4,10.81-18.4h2.02l1.28,3.73-4.88-2.34,18.95,49.33-9.28-37.04,5.83,3.01-6.22-16.7h35.42l-6.22,16.7,5.83-3.01-9.28,37.04,18.95-49.33-4.88,2.34,1.28-3.73h2.08c9.44,0,15.4,10.15,10.81,18.4Zm-5.89-36.9c-5.2,1.89-10.17,1.32-11.12-1.28l18.81-6.85c.95,2.6-2.5,6.24-7.69,8.13Z"/></svg>